<?xml version="1.0" encoding="utf-8"?>
<!-- Generator: Adobe Illustrator 23.1.0, SVG Export Plug-In . SVG Version: 6.00 Build 0)  -->
<svg version="1.1" id="Layer_1" xmlns="http://www.w3.org/2000/svg" xmlns:xlink="http://www.w3.org/1999/xlink" x="0px" y="0px"
	 viewBox="0 0 30 30" style="enable-background:new 0 0 30 30;" xml:space="preserve">
<style type="text/css">
	.st0{fill:#7634FA;}
	.st1{fill:#FFFFFF;}
</style>
<path class="st0" d="M25,0H5C2.2,0,0,2.2,0,5v20c0,2.8,2.2,5,5,5h20c2.8,0,5-2.2,5-5V5C30,2.2,27.8,0,25,0z"/>
<g>
	<path class="st1" d="M11.2,20.3V9.7h3.6c1.1,0,2,0.2,2.6,0.6c0.6,0.4,0.9,1,0.9,1.8c0,0.6-0.2,1.1-0.5,1.5
		c-0.4,0.4-0.8,0.7-1.4,0.9v0c0.7,0.1,1.3,0.4,1.7,0.8c0.4,0.5,0.6,1,0.6,1.7c0,1-0.3,1.7-1,2.3s-1.6,0.8-2.7,0.8H11.2z M13.5,11.5
		V14h1c0.5,0,0.8-0.1,1.1-0.4c0.3-0.2,0.4-0.6,0.4-1c0-0.8-0.5-1.2-1.6-1.2H13.5z M13.5,15.7v2.8h1.2c0.5,0,0.9-0.1,1.2-0.4
		s0.4-0.6,0.4-1c0-0.4-0.1-0.8-0.4-1c-0.3-0.2-0.7-0.4-1.2-0.4H13.5z"/>
</g>
<text transform="matrix(0.9512 0 0 1 39.1333 19.0625)" class="st1" style="font-family:'Ebrima-Bold'; font-size:15.0419px;">B</text>
</svg>
