<?xml version="1.0" encoding="utf-8"?>
<!-- Generator: Adobe Illustrator 23.1.0, SVG Export Plug-In . SVG Version: 6.00 Build 0)  -->
<svg version="1.1" id="Layer_1" xmlns="http://www.w3.org/2000/svg" xmlns:xlink="http://www.w3.org/1999/xlink" x="0px" y="0px"
	 viewBox="0 0 30 30" style="enable-background:new 0 0 30 30;" xml:space="preserve">
<style type="text/css">
	.st0{fill:#F57E22;}
</style>
<g>
	<path class="st0" d="M13.3,11.9L13.3,11.9c-0.1,0.3-0.1,0.6-0.2,0.9L12,16.4h2.6l-1.1-3.5C13.4,12.6,13.3,12.3,13.3,11.9z"/>
	<path class="st0" d="M25,0H5C2.2,0,0,2.2,0,5v20c0,2.8,2.2,5,5,5h20c2.8,0,5-2.2,5-5V5C30,2.2,27.8,0,25,0z M15.8,20.5l-0.7-2.3
		h-3.6l-0.7,2.3H8.3L12,10h2.7l3.6,10.5H15.8z M21.5,20.5h-2.2V13h2.2V20.5z M21.3,11.5c-0.2,0.2-0.5,0.3-0.9,0.3
		c-0.4,0-0.7-0.1-0.9-0.3s-0.4-0.5-0.4-0.9c0-0.3,0.1-0.6,0.4-0.9c0.2-0.2,0.5-0.3,0.9-0.3c0.4,0,0.7,0.1,0.9,0.3
		c0.2,0.2,0.4,0.5,0.4,0.9C21.7,11,21.5,11.3,21.3,11.5z"/>
</g>
<text transform="matrix(0.9512 0 0 1 58.1333 19.0625)" style="fill:#FFFFFF; font-family:'Ebrima-Bold'; font-size:15.0419px;">Ai</text>
</svg>
