<?xml version="1.0" encoding="utf-8"?>
<!-- Generator: Adobe Illustrator 23.1.0, SVG Export Plug-In . SVG Version: 6.00 Build 0)  -->
<svg version="1.1" id="Layer_1" xmlns="http://www.w3.org/2000/svg" xmlns:xlink="http://www.w3.org/1999/xlink" x="0px" y="0px"
	 viewBox="0 0 30 30" style="enable-background:new 0 0 30 30;" xml:space="preserve">
<style type="text/css">
	.st0{fill:#F8981D;}
</style>
<path class="st0" d="M25,0H5C2.2,0,0,2.2,0,5v20c0,2.8,2.2,5,5,5h20c2.8,0,5-2.2,5-5V5C30,2.2,27.8,0,25,0z M13.6,16.8
	c0,2-1,3.7-3.4,3.7c-1.6,0-2.7-0.6-3.4-1.9l1.6-1.2c0.4,0.7,0.9,1,1.5,1c0.8,0,1.3-0.4,1.3-1.8V9.8h2.4V16.8z M19.2,20.4
	c-1.4,0-2.8-0.5-3.9-1.5l1.4-1.6c0.7,0.6,1.7,1.1,2.6,1.1c1,0,1.5-0.4,1.5-1c0-0.7-0.6-0.9-1.5-1.2l-1.4-0.6
	c-1.1-0.4-2.1-1.3-2.1-2.9c0-1.7,1.5-3.1,3.7-3.1c1.2,0,2.5,0.5,3.4,1.4l-1.2,1.5c-0.7-0.5-1.3-0.8-2.2-0.8c-0.8,0-1.3,0.3-1.3,0.9
	c0,0.6,0.7,0.9,1.6,1.2l1.3,0.5c1.3,0.5,2.1,1.4,2.1,2.8C23.1,18.9,21.7,20.4,19.2,20.4z"/>
</svg>
