<?xml version="1.0" encoding="utf-8"?>
<!-- Generator: Adobe Illustrator 23.1.0, SVG Export Plug-In . SVG Version: 6.00 Build 0)  -->
<svg version="1.1" id="Layer_1" xmlns="http://www.w3.org/2000/svg" xmlns:xlink="http://www.w3.org/1999/xlink" x="0px" y="0px"
	 viewBox="0 0 936 934" style="enable-background:new 0 0 936 934;" xml:space="preserve">
<style type="text/css">
	.st0{fill:#227B47;}
	.st1{fill:#08A257;}
	.st2{fill:#03E26A;}
	.st3{fill:#FFFFFF;}
	.st4{fill:#08A657;}
</style>
<path class="st0" d="M380.9,864.8l371.3-370.2c19.2-19.1,19.3-50.1,0.2-69.3L391.7,63.6C361.1,33,308.6,54.3,308,97.7l-10.6,732
	C296.8,873.6,349.8,895.9,380.9,864.8z"/>
<polygon class="st1" points="600.3,489 538,489.3 600.7,489.6 "/>
<path class="st2" d="M699.4,345.9c3.2,3.5,6.4,7.4,9.6,12C706.1,353.5,702.8,349.5,699.4,345.9z"/>
<path class="st2" d="M708.1,357.9c-3.2-4.6-6.5-8.6-9.6-12c-10-10.6-21.6-18-32-21.5c-4.1-1.4-7.9-2.2-11.4-2.3H420.9
	c0,0-32.7-2.9-56.6,39.7c-16.7,25.6-32.7,68.1-39.3,138.8c-0.1,0.5-0.1,0.9-0.1,1.5c-2.3,22.5-14.6,104.1,2.2,138.5
	c4.1,6,9.1,11,15.3,14.5c0,0,0,0,0.1,0.1c1.8,0.5,3.7,0.8,5.7,0.9c0,0,0.2,0.1,0.7,0.3c11.8-2.5,42.6-24.4,115.4-146.2l0.9-1.6
	l10.3-18.9l-0.9,0l0.3-0.6l191,1c0,0,57.6-13.4,57.6-83.5C723.2,387.7,717.1,371.2,708.1,357.9z"/>
<polygon class="st3" points="508,387.9 479.6,387.9 479.6,359.5 453.9,359.5 453.9,387.9 425.5,387.9 425.5,413.6 453.9,413.6 
	453.9,442 479.6,442 479.6,413.6 508,413.6 "/>
<g>
	<circle class="st3" cx="623.6" cy="375.8" r="16.3"/>
	<circle class="st3" cx="596.8" cy="400.7" r="16.3"/>
	<circle class="st3" cx="621.7" cy="427.6" r="16.3"/>
	<circle class="st3" cx="648.6" cy="402.6" r="16.3"/>
</g>
<path class="st4" d="M707.1,357.9c9,13.3,15.1,29.8,15.1,48.6c0,70.1-57.6,83.5-57.6,83.5l-188.9-1l-11.7,20.5l143,0.7
	c17.5,35.6,32.9,62.6,46.4,83.2l95.5-94.8C741.8,425.5,724.6,382.8,707.1,357.9z"/>
</svg>
