<?xml version="1.0" encoding="utf-8"?>
<!-- Generator: Adobe Illustrator 23.1.0, SVG Export Plug-In . SVG Version: 6.00 Build 0)  -->
<svg version="1.1" id="Layer_1" xmlns="http://www.w3.org/2000/svg" xmlns:xlink="http://www.w3.org/1999/xlink" x="0px" y="0px"
	 viewBox="0 0 30 30" style="enable-background:new 0 0 30 30;" xml:space="preserve">
<style type="text/css">
	.st0{fill:#CC6699;}
	.st1{fill:none;stroke:#CC6699;stroke-width:0.25;stroke-miterlimit:10;}
</style>
<g>
	<path class="st0" d="M25,0H5C2.2,0,0,2.2,0,5v20c0,2.8,2.2,5,5,5h20c2.8,0,5-2.2,5-5V5C30,2.2,27.8,0,25,0z M9.3,18
		c-0.2,0.3-0.4,0.6-0.7,0.8c-0.3,0.2-0.6,0.3-1,0.4c-0.4,0.1-0.8,0.1-1.2,0.1c-0.4,0-0.9,0-1.3-0.1c-0.4-0.1-0.7-0.2-1-0.4V17
		c0.3,0.3,0.7,0.5,1.1,0.6s0.8,0.2,1.2,0.2c0.2,0,0.4,0,0.6-0.1c0.2,0,0.3-0.1,0.4-0.2c0.1-0.1,0.2-0.2,0.3-0.3
		c0.1-0.1,0.1-0.2,0.1-0.3c0-0.2,0-0.3-0.1-0.4c-0.1-0.1-0.2-0.2-0.4-0.4C7,16.1,6.8,16,6.6,15.9c-0.2-0.1-0.4-0.2-0.7-0.3
		c-0.6-0.3-1.1-0.6-1.4-1C4.2,14.2,4,13.7,4,13.1c0-0.4,0.1-0.8,0.3-1.1c0.2-0.3,0.4-0.6,0.7-0.8c0.3-0.2,0.6-0.4,1-0.5
		s0.8-0.1,1.2-0.1c0.4,0,0.8,0,1.1,0.1c0.3,0.1,0.6,0.1,0.9,0.2v1.8c-0.1-0.1-0.3-0.2-0.4-0.3c-0.2-0.1-0.3-0.1-0.5-0.2
		c-0.2,0-0.3-0.1-0.5-0.1s-0.3,0-0.5,0c-0.2,0-0.4,0-0.6,0.1s-0.3,0.1-0.4,0.2c-0.1,0.1-0.2,0.2-0.3,0.3C6,12.7,5.9,12.8,5.9,13
		c0,0.1,0,0.3,0.1,0.4c0.1,0.1,0.2,0.2,0.3,0.3c0.1,0.1,0.3,0.2,0.5,0.3c0.2,0.1,0.4,0.2,0.6,0.3c0.3,0.1,0.6,0.3,0.9,0.5
		c0.3,0.2,0.5,0.3,0.7,0.5c0.2,0.2,0.3,0.4,0.4,0.7c0.1,0.3,0.1,0.6,0.1,0.9C9.5,17.3,9.5,17.7,9.3,18z M15.5,19.2h-1.7v-0.9h0
		c-0.4,0.7-1,1-1.7,1c-0.6,0-1-0.2-1.3-0.5c-0.3-0.3-0.5-0.8-0.5-1.3c0-1.2,0.7-1.8,2-2l1.6-0.2c0-0.7-0.3-1-1-1
		c-0.7,0-1.3,0.2-2,0.6v-1.4c0.2-0.1,0.6-0.3,1-0.4S12.7,13,13,13c1.6,0,2.5,0.9,2.5,2.6V19.2z M20.7,18.3c-0.1,0.3-0.3,0.5-0.6,0.6
		c-0.2,0.2-0.5,0.3-0.8,0.3c-0.3,0.1-0.7,0.1-1,0.1c-0.6,0-1.2-0.1-1.8-0.3v-1.5c0.3,0.2,0.6,0.3,0.9,0.4c0.3,0.1,0.6,0.1,0.8,0.1
		c0.3,0,0.6,0,0.7-0.1c0.2-0.1,0.3-0.2,0.3-0.4c0-0.1,0-0.2-0.1-0.3s-0.2-0.1-0.3-0.2c-0.1-0.1-0.3-0.1-0.4-0.2
		c-0.2,0-0.3-0.1-0.4-0.2c-0.2-0.1-0.4-0.2-0.6-0.3c-0.2-0.1-0.3-0.2-0.4-0.4c-0.1-0.1-0.2-0.3-0.3-0.5c-0.1-0.2-0.1-0.4-0.1-0.6
		c0-0.3,0.1-0.6,0.2-0.9s0.3-0.4,0.6-0.6c0.2-0.2,0.5-0.3,0.8-0.3c0.3-0.1,0.6-0.1,0.9-0.1c0.3,0,0.5,0,0.8,0.1
		c0.3,0,0.5,0.1,0.8,0.2v1.4c-0.2-0.1-0.5-0.2-0.7-0.3c-0.3-0.1-0.5-0.1-0.8-0.1c-0.1,0-0.2,0-0.3,0c-0.1,0-0.2,0.1-0.3,0.1
		c-0.1,0-0.1,0.1-0.2,0.2c0,0.1-0.1,0.1-0.1,0.2c0,0.1,0,0.2,0.1,0.3c0.1,0.1,0.2,0.1,0.3,0.2c0.1,0.1,0.2,0.1,0.4,0.2
		c0.1,0,0.3,0.1,0.4,0.1c0.2,0.1,0.4,0.2,0.6,0.3c0.2,0.1,0.4,0.2,0.5,0.4s0.2,0.3,0.3,0.5c0.1,0.2,0.1,0.4,0.1,0.7
		C20.9,17.7,20.8,18,20.7,18.3z M25.8,18.3c-0.1,0.3-0.3,0.5-0.6,0.6c-0.2,0.2-0.5,0.3-0.8,0.3c-0.3,0.1-0.7,0.1-1,0.1
		c-0.6,0-1.2-0.1-1.8-0.3v-1.5c0.3,0.2,0.6,0.3,0.9,0.4c0.3,0.1,0.6,0.1,0.8,0.1c0.3,0,0.6,0,0.7-0.1c0.2-0.1,0.3-0.2,0.3-0.4
		c0-0.1,0-0.2-0.1-0.3s-0.2-0.1-0.3-0.2c-0.1-0.1-0.3-0.1-0.4-0.2c-0.2,0-0.3-0.1-0.4-0.2c-0.2-0.1-0.4-0.2-0.6-0.3
		c-0.2-0.1-0.3-0.2-0.4-0.4c-0.1-0.1-0.2-0.3-0.3-0.5c-0.1-0.2-0.1-0.4-0.1-0.6c0-0.3,0.1-0.6,0.2-0.9s0.3-0.4,0.6-0.6
		c0.2-0.2,0.5-0.3,0.8-0.3c0.3-0.1,0.6-0.1,0.9-0.1c0.3,0,0.5,0,0.8,0.1c0.3,0,0.5,0.1,0.8,0.2v1.4c-0.2-0.1-0.5-0.2-0.7-0.3
		c-0.3-0.1-0.5-0.1-0.8-0.1c-0.1,0-0.2,0-0.3,0c-0.1,0-0.2,0.1-0.3,0.1c-0.1,0-0.1,0.1-0.2,0.2c0,0.1-0.1,0.1-0.1,0.2
		c0,0.1,0,0.2,0.1,0.3c0.1,0.1,0.2,0.1,0.3,0.2c0.1,0.1,0.2,0.1,0.4,0.2c0.1,0,0.3,0.1,0.4,0.1c0.2,0.1,0.4,0.2,0.6,0.3
		c0.2,0.1,0.4,0.2,0.5,0.4s0.2,0.3,0.3,0.5c0.1,0.2,0.1,0.4,0.1,0.7C26,17.7,25.9,18,25.8,18.3z"/>
	<path class="st0" d="M11.9,17.3c0,0.2,0.1,0.4,0.2,0.5c0.1,0.1,0.3,0.2,0.6,0.2c0.3,0,0.6-0.1,0.8-0.4c0.2-0.2,0.3-0.5,0.3-0.9
		v-0.4l-1,0.1C12.2,16.6,11.9,16.9,11.9,17.3z"/>
</g>
<g>
	<path class="st1" d="M52.1,15.9V14c0.3,0.3,0.7,0.5,1.1,0.6s0.8,0.2,1.2,0.2c0.2,0,0.4,0,0.6-0.1c0.2,0,0.3-0.1,0.4-0.2
		c0.1-0.1,0.2-0.2,0.3-0.3c0.1-0.1,0.1-0.2,0.1-0.3c0-0.2,0-0.3-0.1-0.4c-0.1-0.1-0.2-0.2-0.4-0.4c-0.2-0.1-0.3-0.2-0.6-0.3
		c-0.2-0.1-0.4-0.2-0.7-0.3c-0.6-0.3-1.1-0.6-1.4-1c-0.3-0.4-0.5-0.9-0.5-1.4c0-0.4,0.1-0.8,0.3-1.1c0.2-0.3,0.4-0.6,0.7-0.8
		c0.3-0.2,0.6-0.4,1-0.5s0.8-0.1,1.2-0.1c0.4,0,0.8,0,1.1,0.1c0.3,0.1,0.6,0.1,0.9,0.2v1.8c-0.1-0.1-0.3-0.2-0.4-0.3
		c-0.2-0.1-0.3-0.1-0.5-0.2c-0.2,0-0.3-0.1-0.5-0.1s-0.3,0-0.5,0c-0.2,0-0.4,0-0.6,0.1s-0.3,0.1-0.4,0.2c-0.1,0.1-0.2,0.2-0.3,0.3
		C54,9.7,53.9,9.8,53.9,10c0,0.1,0,0.3,0.1,0.4c0.1,0.1,0.2,0.2,0.3,0.3c0.1,0.1,0.3,0.2,0.5,0.3c0.2,0.1,0.4,0.2,0.6,0.3
		c0.3,0.1,0.6,0.3,0.9,0.5c0.3,0.2,0.5,0.3,0.7,0.5c0.2,0.2,0.3,0.4,0.4,0.7c0.1,0.3,0.1,0.6,0.1,0.9c0,0.5-0.1,0.9-0.3,1.2
		c-0.2,0.3-0.4,0.6-0.7,0.8c-0.3,0.2-0.6,0.3-1,0.4c-0.4,0.1-0.8,0.1-1.2,0.1c-0.4,0-0.9,0-1.3-0.1C52.7,16.2,52.3,16.1,52.1,15.9z"
		/>
	<path class="st1" d="M63.5,16.2h-1.7v-0.9h0c-0.4,0.7-1,1-1.7,1c-0.6,0-1-0.2-1.3-0.5c-0.3-0.3-0.5-0.8-0.5-1.3c0-1.2,0.7-1.8,2-2
		l1.6-0.2c0-0.7-0.3-1-1-1c-0.7,0-1.3,0.2-2,0.6v-1.4c0.2-0.1,0.6-0.3,1-0.4S60.7,10,61,10c1.6,0,2.5,0.9,2.5,2.6V16.2z M61.8,13.8
		v-0.4l-1,0.1c-0.6,0.1-0.9,0.4-0.9,0.8c0,0.2,0.1,0.4,0.2,0.5c0.1,0.1,0.3,0.2,0.6,0.2c0.3,0,0.6-0.1,0.8-0.4
		C61.7,14.5,61.8,14.1,61.8,13.8z"/>
	<path class="st1" d="M64.5,16.1v-1.5c0.3,0.2,0.6,0.3,0.9,0.4c0.3,0.1,0.6,0.1,0.8,0.1c0.3,0,0.6,0,0.7-0.1
		c0.2-0.1,0.3-0.2,0.3-0.4c0-0.1,0-0.2-0.1-0.3s-0.2-0.1-0.3-0.2c-0.1-0.1-0.3-0.1-0.4-0.2c-0.2,0-0.3-0.1-0.4-0.2
		c-0.2-0.1-0.4-0.2-0.6-0.3c-0.2-0.1-0.3-0.2-0.4-0.4c-0.1-0.1-0.2-0.3-0.3-0.5c-0.1-0.2-0.1-0.4-0.1-0.6c0-0.3,0.1-0.6,0.2-0.9
		s0.3-0.4,0.6-0.6c0.2-0.2,0.5-0.3,0.8-0.3c0.3-0.1,0.6-0.1,0.9-0.1c0.3,0,0.5,0,0.8,0.1c0.3,0,0.5,0.1,0.8,0.2v1.4
		c-0.2-0.1-0.5-0.2-0.7-0.3c-0.3-0.1-0.5-0.1-0.8-0.1c-0.1,0-0.2,0-0.3,0c-0.1,0-0.2,0.1-0.3,0.1c-0.1,0-0.1,0.1-0.2,0.2
		c0,0.1-0.1,0.1-0.1,0.2c0,0.1,0,0.2,0.1,0.3c0.1,0.1,0.2,0.1,0.3,0.2c0.1,0.1,0.2,0.1,0.4,0.2c0.1,0,0.3,0.1,0.4,0.1
		c0.2,0.1,0.4,0.2,0.6,0.3c0.2,0.1,0.4,0.2,0.5,0.4s0.2,0.3,0.3,0.5c0.1,0.2,0.1,0.4,0.1,0.7c0,0.4-0.1,0.7-0.2,0.9
		c-0.1,0.3-0.3,0.5-0.6,0.6c-0.2,0.2-0.5,0.3-0.8,0.3c-0.3,0.1-0.7,0.1-1,0.1C65.6,16.4,65,16.3,64.5,16.1z"/>
	<path class="st1" d="M69.6,16.1v-1.5c0.3,0.2,0.6,0.3,0.9,0.4c0.3,0.1,0.6,0.1,0.8,0.1c0.3,0,0.6,0,0.7-0.1
		c0.2-0.1,0.3-0.2,0.3-0.4c0-0.1,0-0.2-0.1-0.3s-0.2-0.1-0.3-0.2c-0.1-0.1-0.3-0.1-0.4-0.2c-0.2,0-0.3-0.1-0.4-0.2
		c-0.2-0.1-0.4-0.2-0.6-0.3c-0.2-0.1-0.3-0.2-0.4-0.4c-0.1-0.1-0.2-0.3-0.3-0.5c-0.1-0.2-0.1-0.4-0.1-0.6c0-0.3,0.1-0.6,0.2-0.9
		s0.3-0.4,0.6-0.6c0.2-0.2,0.5-0.3,0.8-0.3c0.3-0.1,0.6-0.1,0.9-0.1c0.3,0,0.5,0,0.8,0.1c0.3,0,0.5,0.1,0.8,0.2v1.4
		c-0.2-0.1-0.5-0.2-0.7-0.3c-0.3-0.1-0.5-0.1-0.8-0.1c-0.1,0-0.2,0-0.3,0c-0.1,0-0.2,0.1-0.3,0.1c-0.1,0-0.1,0.1-0.2,0.2
		c0,0.1-0.1,0.1-0.1,0.2c0,0.1,0,0.2,0.1,0.3c0.1,0.1,0.2,0.1,0.3,0.2c0.1,0.1,0.2,0.1,0.4,0.2c0.1,0,0.3,0.1,0.4,0.1
		c0.2,0.1,0.4,0.2,0.6,0.3c0.2,0.1,0.4,0.2,0.5,0.4s0.2,0.3,0.3,0.5c0.1,0.2,0.1,0.4,0.1,0.7c0,0.4-0.1,0.7-0.2,0.9
		c-0.1,0.3-0.3,0.5-0.6,0.6c-0.2,0.2-0.5,0.3-0.8,0.3c-0.3,0.1-0.7,0.1-1,0.1C70.7,16.4,70.1,16.3,69.6,16.1z"/>
</g>
</svg>
